<?xml version="1.0" encoding="UTF-8" standalone="no"?>
<svg width="223px" height="44px" viewBox="0 0 223 44" version="1.1" xmlns="http://www.w3.org/2000/svg" xmlns:xlink="http://www.w3.org/1999/xlink">
    <!-- Generator: Sketch 3.8.3 (29802) - http://www.bohemiancoding.com/sketch -->
    <title>fake-cloudgov</title>
    <desc>Created with Sketch.</desc>
    <defs></defs>
    <g id="Page-1" stroke="none" stroke-width="1" fill="none" fill-rule="evenodd">
        <g id="fake-cloudgov" transform="translate(0.000000, -1.000000)">
            <path d="M62.21875,19.7375 C62.3960441,19.7377367 62.5647425,19.6611385 62.68125,19.5275 L63.985,18.1125 C63.1667179,17.1244699 62.1303876,16.3397343 60.9575,15.82 C59.7625,15.2825 58.3325,15.015 56.67,15.015 C55.195,15.015 53.86,15.26875 52.67,15.7775 C51.5130097,16.2623359 50.4730872,16.989003 49.62,17.90875 C48.78,18.82125 48.1325,19.90625 47.68,21.1675 C47.2275,22.43 47,23.8175 47,25.33 C47,26.8425 47.24125,28.2325 47.7225,29.49875 C48.20375,30.765 48.88,31.85375 49.75375,32.76375 C50.62875,33.67625 51.67375,34.3825 52.89375,34.88875 C54.11125,35.39125 55.45625,35.64375 56.92125,35.64375 C58.37875,35.64375 59.66625,35.40875 60.78375,34.9375 C61.8594408,34.4918348 62.8444338,33.8529661 63.69,33.0525 L62.61125,31.525 C62.5367822,31.4230329 62.4469671,31.3332178 62.345,31.25875 C62.2209133,31.1777148 62.0742405,31.1383101 61.92625,31.14625 C61.73875,31.14625 61.52625,31.23375 61.28875,31.40625 C61.05125,31.57875 60.74625,31.76875 60.37625,31.98125 C59.9354618,32.221604 59.4703417,32.4143565 58.98875,32.55625 C58.43375,32.7275 57.73875,32.815 56.90875,32.815 C55.94625,32.815 55.065,32.64625 54.26125,32.31 C53.4677999,31.9817657 52.7585523,31.4788835 52.18625,30.83875 C51.6075,30.19375 51.15625,29.40875 50.83625,28.48375 C50.51125,27.55875 50.35125,26.50875 50.35125,25.33125 C50.35125,24.14375 50.52,23.08625 50.85625,22.15625 C51.19375,21.22625 51.65375,20.44125 52.24375,19.8025 C52.8207419,19.1691848 53.5288441,18.6692476 54.31875,18.3375 C55.1300122,17.997725 56.001733,17.8259323 56.88125,17.8325 C57.44375,17.8325 57.94375,17.865 58.38875,17.925 C58.8325,17.9875 59.24125,18.08375 59.61375,18.22 C59.98875,18.355 60.34125,18.525 60.6725,18.7325 C61.00625,18.93625 61.335,19.18875 61.6625,19.4875 C61.85,19.65625 62.035,19.74 62.2225,19.74 L62.21875,19.7375 Z M71.93125,17.985 L80.31125,17.985 L80.31125,15.2375 L68.64875,15.2375 L68.64875,35.41875 L71.93,35.41875 L71.93,17.98625 L71.93125,17.985 Z M99.95,25.33 C99.95,26.4875 99.79375,27.53 99.48,28.455 C99.1675,29.38 98.7175,30.16375 98.13375,30.80875 C97.5456332,31.4555985 96.8204859,31.9629454 96.01125,32.29375 C95.17875,32.64125 94.245,32.81375 93.2075,32.81375 C92.18,32.81375 91.25,32.64125 90.42,32.295 C89.6089031,31.9635529 88.8811181,31.456878 88.28875,30.81125 C87.70125,30.16625 87.2475,29.38125 86.92875,28.45625 C86.61,27.53125 86.45125,26.48875 86.45125,25.33125 C86.45125,24.1625 86.61,23.11625 86.92625,22.19 C87.24625,21.265 87.69875,20.48375 88.28875,19.84375 C88.8805362,19.201334 89.6076298,18.6983884 90.4175,18.37125 C91.25,18.03125 92.18,17.85875 93.2075,17.85875 C94.245,17.85875 95.17875,18.03125 96.01125,18.37125 C96.8200417,18.6970389 97.5453762,19.200245 98.13375,19.84375 C98.7175,20.48375 99.16625,21.26625 99.47875,22.19 C99.79125,23.115 99.9475,24.1625 99.9475,25.33 L99.95,25.33 Z M103.2975,25.33 C103.2975,23.83375 103.05375,22.455 102.56875,21.1925 C102.112059,19.9790464 101.41331,18.8711697 100.515,17.93625 C99.6130056,17.011805 98.5294478,16.2840422 97.3325,15.79875 C96.095,15.28625 94.72,15.02875 93.205,15.02875 C91.70125,15.02875 90.33,15.28375 89.0925,15.7975 C87.855,16.31 86.7925,17.0225 85.905,17.935 C85.0024887,18.8687721 84.3005928,19.9773424 83.8425,21.1925 C83.3575,22.455 83.115,23.83375 83.115,25.33 C83.115,26.82375 83.3575,28.20125 83.84375,29.4625 C84.33125,30.725 85.01625,31.8125 85.90375,32.72875 C86.8082062,33.6549608 87.8942286,34.3843661 89.09375,34.87125 C90.33125,35.38375 91.7025,35.6425 93.20625,35.6425 C94.71875,35.6425 96.09625,35.38625 97.33375,34.8725 C98.57125,34.36 99.63375,33.64375 100.515,32.72875 C101.412496,31.7891265 102.110661,30.6776747 102.5675,29.46125 C103.0525,28.19875 103.29625,26.82375 103.29625,25.3275 L103.2975,25.33 Z M116.7625,17.8875 C117.5375,17.8875 118.23125,18.01875 118.84375,18.28 C119.45625,18.5425 119.97375,18.905 120.39875,19.3725 C120.82375,19.84 121.14875,20.40375 121.37375,21.0625 C121.59875,21.72 121.70875,22.45 121.70875,23.255 L121.70875,35.42 L124.975,35.42 L124.975,23.255 C124.975,22.0675 124.785,20.97125 124.4075,19.9625 C124.050997,18.9878719 123.495456,18.0981553 122.77625,17.35 C122.043669,16.6006243 121.162243,16.0130071 120.18875,15.625 C119.17625,15.20875 118.03375,15 116.76375,15 C115.4925,15 114.35125,15.20875 113.33875,15.625 C112.32375,16.04 111.46125,16.615 110.75125,17.35 C110.031594,18.0980395 109.475623,18.9877644 109.11875,19.9625 C108.731818,21.0166288 108.539122,22.1321531 108.55,23.255 L108.55,35.42 L111.82875,35.42 L111.82875,23.27 C111.82875,22.465 111.94125,21.735 112.16625,21.07625 C112.39125,20.4175 112.7125,19.85125 113.1325,19.38 C113.555,18.90875 114.07,18.5425 114.6825,18.28 C115.295,18.0175 115.9875,17.8875 116.76375,17.8875 L116.7625,17.8875 Z M145.81625,25.33 C145.81625,26.4875 145.66,27.53 145.34625,28.455 C145.03375,29.38 144.58375,30.15875 144.00125,30.7925 C143.4175,31.43 142.71,31.9175 141.87875,32.25875 C141.04625,32.6 140.1125,32.77125 139.075,32.77125 L134.74375,32.77125 L134.74375,17.88625 L139.075,17.88625 C140.1125,17.88625 141.04625,18.055 141.87875,18.39125 C142.687809,18.7118481 143.413541,19.2119111 144.00125,19.85375 C144.585,20.495 145.03375,21.275 145.34625,22.195 C145.65875,23.115 145.81625,24.16 145.81625,25.3275 L145.81625,25.33 Z M149.16625,25.3275 C149.16625,23.83125 148.9225,22.465 148.43625,21.2275 C147.979817,20.0345228 147.280934,18.9491685 146.38375,18.04 C145.478156,17.1374078 144.394822,16.4329218 143.2025,15.97125 C141.965,15.48125 140.59,15.23625 139.075,15.23625 L131.45,15.23625 L131.45,35.41625 L139.075,35.41625 C140.5875,35.41625 141.9625,35.1725 143.2025,34.6825 C144.394714,34.2211972 145.478039,33.5171423 146.38375,32.615 C147.281223,31.7051005 147.980123,30.618869 148.43625,29.425 C148.92375,28.1875 149.165,26.82125 149.165,25.325 L149.16625,25.3275 Z" id="Shape" fill="#1F2C38" transform="translate(98.083125, 25.321875) scale(1, -1) translate(-98.083125, -25.321875) "></path>
            <path d="M151.00025,16.965 C150.995508,17.4822648 151.194409,17.98064 151.554,18.3525 C151.916931,18.7234656 152.415037,18.93101 152.934,18.9275 C153.722131,18.9245257 154.432844,18.4526832 154.7415,17.7275 C154.845563,17.4868568 154.898351,17.2271732 154.8965,16.965 C154.8965,16.685 154.8465,16.4275 154.7415,16.19375 C154.641427,15.9637886 154.498945,15.7547291 154.3215,15.5775 C154.142658,15.3998213 153.930182,15.2595872 153.6965,15.165 C153.454468,15.0662953 153.195381,15.0161768 152.934,15.0175 C152.66275,15.0175 152.409,15.065 152.1715,15.1625 C151.9315,15.2625 151.7265,15.4 151.554,15.575 C151.191362,15.9448817 150.991936,16.4445721 151.00025,16.9625 L151.00025,16.965 Z M168.644,15.0025 C167.009,15.0025 165.5315,15.25625 164.2065,15.765 C162.8865,16.275 161.7565,16.985 160.824,17.89625 C159.882475,18.8179568 159.14676,19.9285581 158.66525,21.155 C158.1615,22.415 157.909,23.8025 157.909,25.3175 C157.909,26.83875 158.1515,28.2325 158.63775,29.49875 C159.096169,30.7221743 159.807485,31.8351491 160.72525,32.765 C161.658131,33.6925634 162.775645,34.4135817 164.00525,34.88125 C165.28525,35.38125 166.724,35.63125 168.3215,35.63125 C169.134,35.63125 169.889,35.56875 170.584,35.44375 C171.2815,35.31625 171.92775,35.14125 172.52525,34.91875 C173.653354,34.4986149 174.687322,33.8597122 175.56775,33.03875 L174.62775,31.53875 C174.501802,31.3230886 174.29471,31.1668692 174.05275,31.105 C173.82025,31.0475 173.56775,31.105 173.2965,31.27125 L172.434,31.77625 C172.099737,31.9685056 171.751214,32.1348273 171.3915,32.27375 C170.950801,32.4416222 170.495532,32.5684112 170.0315,32.6525 C169.430271,32.7577761 168.820585,32.8071536 168.21025,32.8 C167.14525,32.8 166.18525,32.625 165.33025,32.275 C164.498962,31.9405201 163.75071,31.4286033 163.13775,30.775 C162.511497,30.0937039 162.034625,29.2889832 161.73775,28.4125 C161.409,27.4875 161.24525,26.45625 161.24525,25.31625 C161.24525,24.11 161.42025,23.0325 161.764,22.08375 C162.11025,21.13625 162.6015,20.33375 163.23525,19.67375 C163.882844,19.0069214 164.670602,18.4924236 165.5415,18.1675 C166.4415,17.8225 167.449,17.65 168.5615,17.65 C169.394,17.65 170.134,17.7375 170.784,17.91625 C171.434,18.09125 172.0715,18.34125 172.6965,18.6575 L172.6965,22.66625 L169.88025,22.66625 C169.66525,22.66625 169.4965,22.72375 169.37525,22.84125 C169.253267,22.9604999 169.187424,23.1257882 169.194,23.29625 L169.194,25.15875 L175.6565,25.15875 L175.6565,17.17125 C173.6465,15.72375 171.31025,15 168.64775,15 L168.644,15.0025 Z M197.1965,25.31875 C197.1965,26.47625 197.0415,27.51875 196.72775,28.44375 C196.41525,29.36875 195.96525,30.1525 195.38275,30.7975 C194.793914,31.4446529 194.067884,31.9520198 193.25775,32.2825 C192.4265,32.63 191.49275,32.8025 190.45525,32.8025 C189.42775,32.8025 188.49775,32.63 187.66775,32.28375 C186.856653,31.9523029 186.128868,31.445628 185.5365,30.8 C184.949,30.155 184.49525,29.37 184.1765,28.445 C183.859,27.52 183.7015,26.4775 183.7015,25.32 C183.7015,24.15125 183.859,23.105 184.1765,22.17875 C184.49525,21.25375 184.94775,20.4725 185.5365,19.8325 C186.128646,19.1899321 186.856181,18.6869767 187.6665,18.36 C188.49775,18.02 189.429,17.8475 190.454,17.8475 C191.4915,17.8475 192.4265,18.02 193.259,18.36 C194.06869,18.6854619 194.794908,19.1886883 195.384,19.8325 C195.9665,20.4725 196.41525,21.255 196.72775,22.17875 C197.04025,23.10375 197.19775,24.15125 197.19775,25.31875 L197.1965,25.31875 Z M200.54775,25.31875 C200.54775,23.8225 200.30525,22.44375 199.82025,21.18125 C199.363559,19.9677964 198.66481,18.8599197 197.7665,17.925 C196.864871,17.0006977 195.781751,16.2729434 194.58525,15.7875 C193.34775,15.275 191.97275,15.0175 190.45775,15.0175 C188.954,15.0175 187.58275,15.2725 186.34525,15.78625 C185.10775,16.29875 184.04525,17.01125 183.15775,17.92375 C182.255239,18.8575221 181.553343,19.9660924 181.09525,21.18125 C180.61025,22.44375 180.36775,23.8225 180.36775,25.31875 C180.36775,26.8125 180.61025,28.19 181.0965,29.45125 C181.5815,30.71375 182.26775,31.80125 183.15525,32.7175 C184.058976,33.643426 185.144122,34.3728145 186.34275,34.86 C187.58025,35.3725 188.95275,35.63125 190.45525,35.63125 C191.97025,35.63125 193.3465,35.375 194.584,34.86125 C195.8215,34.34875 196.884,33.6325 197.76525,32.7175 C198.663194,31.7779891 199.36179,30.6665294 199.819,29.45 C200.304,28.1875 200.54775,26.8125 200.54775,25.31625 L200.54775,25.31875 Z M202.89275,35.40625 L205.514,35.40625 C205.8015,35.40625 206.0365,35.335 206.214,35.19 C206.3915,35.045 206.5265,34.865 206.62025,34.6525 L211.82025,21.4925 C211.95025,21.125 212.08275,20.73 212.21775,20.29875 C212.35525,19.86875 212.47775,19.41625 212.589,18.93875 C212.69275,19.41625 212.8015,19.86875 212.919,20.29875 C213.034,20.72875 213.16275,21.12375 213.30275,21.49 L218.48775,34.65 C218.56275,34.8375 218.694,35.00875 218.88025,35.1675 C219.077082,35.3288973 219.325842,35.413298 219.58025,35.405 L222.21525,35.405 L214.03025,15.225 L211.074,15.225 L202.889,35.40625 L202.89275,35.40625 Z" id="Shape" fill="#277CB2" transform="translate(186.607625, 25.315625) scale(1, -1) translate(-186.607625, -25.315625) "></path>
            <polygon id="Shape" fill="#3498DB" transform="translate(14.968750, 13.786125) scale(1, -1) translate(-14.968750, -13.786125) " points="12.755 5.99925 14.96375 12.7955 17.1725 6.0005 23.8475 6.0005 29.9375 10.688 14.96875 21.573 0 10.68675 6.1 5.99925"></polygon>
            <polygon id="Shape" fill="#1F2C38" transform="translate(14.967500, 30.963000) scale(1, -1) translate(-14.967500, -30.963000) " points="23.845 40.353 23.8475 40.353 18.535 36.153 20.74375 29.35675 14.9625 33.55675 9.18125 29.35675 11.39 36.153 6.1 40.353 0 45.0405 0 27.75675 14.9675 16.8855 29.935 27.75675 29.935 45.0405 23.845 40.353"></polygon>
            <path d="M33.8623302,8.55319053 C32.3663302,10.9841905 30.5813302,14.3161905 30.0713302,15.8121905 C29.7143302,16.8661905 29.8843302,17.4101905 30.2073302,17.6821905 C30.3263302,17.7841905 30.4283302,17.7841905 30.4963302,17.6141905 C30.9893302,16.4751905 31.6183302,15.2001905 32.2643302,13.9421905 C33.2333302,13.7041905 34.5423302,13.4491905 35.3923302,13.4661905 C35.5963302,13.4661905 35.6303302,13.3641905 35.5793302,13.2111905 C35.4263302,12.7011905 35.0013302,12.3441905 34.1513302,12.3951905 C33.8453302,12.4121905 33.4543302,12.4461905 33.0123302,12.5311905 C33.8453302,11.0011905 34.6443302,9.62419053 35.2393302,8.65519053 C36.2763302,8.50219053 37.4663302,8.16219053 38.7413302,8.17919053 C38.9623302,8.17919053 38.9963302,8.06019053 38.9453302,7.92419053 C38.7243302,7.39719053 38.2823302,7.05719053 37.5513302,7.05719053 C36.5993302,7.05719053 34.7973302,7.55019053 33.3863302,7.48219053 C33.2163302,7.48219053 33.1653302,7.55019053 33.1993302,7.68619053 C33.2843302,8.02619053 33.4713302,8.36619053 33.8623302,8.55319053 L33.8623302,8.55319053 Z M40.5943302,14.8261905 C40.5433302,15.3361905 40.5263302,15.7781905 40.5263302,16.1181905 C40.5433302,17.0871905 40.8153302,17.5121905 41.1553302,17.6651905 C41.3083302,17.7331905 41.4103302,17.6821905 41.4103302,17.5121905 C41.4443302,16.6111905 41.5463302,15.6761905 41.6653302,14.7921905 C41.9543302,14.8091905 42.1923302,14.8431905 42.3963302,14.8941905 C42.5493302,14.9451905 42.6173302,14.8941905 42.5833302,14.7411905 C42.5153302,14.3841905 42.3283302,14.0441905 41.8183302,13.8741905 C42.1413302,12.0041905 42.6173302,10.2701905 43.0593302,8.92719053 C43.2123302,8.46819053 43.2293302,8.09419053 43.0593302,7.68619053 C42.8893302,7.26119053 42.8383302,7.22719053 42.6683302,6.98919053 C42.4983302,6.75119053 42.3283302,6.75119053 42.0563302,6.97219053 C40.2543302,8.45119053 37.8913302,11.8171905 36.5653302,14.1291905 C36.2933302,14.1121905 36.0383302,14.0781905 35.8003302,14.0441905 C35.5453302,14.0101905 35.5113302,14.0781905 35.5963302,14.2991905 C35.6473302,14.4181905 35.7833302,14.6731905 36.1573302,14.8771905 C35.9533302,15.2511905 35.8003302,15.5911905 35.6983302,15.8461905 C35.3413302,16.7981905 35.4093302,17.3081905 35.6133302,17.5801905 C35.6983302,17.6991905 35.8513302,17.6991905 35.9193302,17.5461905 C36.2593302,16.7981905 36.7013302,15.9651905 37.2113302,15.0981905 C38.0103302,15.1151905 39.3873302,14.9111905 40.5943302,14.8261905 L40.5943302,14.8261905 Z M37.8573302,14.0781905 C39.1493302,12.0551905 40.6963302,9.99819053 41.9883302,8.55319053 C41.4613302,9.87919053 40.9853302,12.0211905 40.7303302,13.7891905 C39.9313302,13.8061905 38.8943302,13.9931905 37.8573302,14.0781905 L37.8573302,14.0781905 Z M44.9123302,13.9251905 C45.7453302,15.1321905 46.4933302,16.3561905 47.1393302,17.6141905 C47.2243302,17.7671905 47.3433302,17.7671905 47.4453302,17.6481905 C47.7003302,17.3251905 47.8533302,16.7301905 47.4453302,15.7611905 C47.2413302,15.2851905 46.7823302,14.5031905 46.2383302,13.6361905 C48.5333302,12.0211905 50.8453302,9.94719053 51.6103302,8.91019053 C52.2223302,8.07719053 52.2393302,7.49919053 52.1373302,7.12519053 C52.0693302,6.97219053 51.9333302,6.95519053 51.8143302,7.09119053 C50.1993302,8.84219053 47.8193302,10.9671905 45.5923302,12.6331905 C46.2043302,11.4941905 46.7653302,10.4911905 47.2073302,9.69219053 C47.9043302,8.41719053 47.8193302,7.60119053 47.5983302,7.21019053 C47.4623302,6.98919053 47.3433302,6.97219053 47.1903302,7.17619053 C46.1533302,8.62119053 43.2293302,14.3841905 42.8043302,15.8291905 C42.4983302,16.8491905 42.6343302,17.3421905 42.8893302,17.6991905 C42.9913302,17.8351905 43.0933302,17.8011905 43.1613302,17.6481905 C43.7223302,16.3391905 44.3173302,15.0641905 44.9123302,13.9251905 L44.9123302,13.9251905 Z M53.2423302,8.57019053 C51.8143302,10.7801905 50.1143302,13.9421905 49.3323302,16.0331905 C49.1623302,16.4921905 49.1623302,16.7131905 49.3153302,17.0021905 C49.4343302,17.2231905 49.5363302,17.4781905 49.6723302,17.6311905 C49.8763302,17.8861905 50.0633302,17.8861905 50.3863302,17.8011905 C51.3383302,17.5461905 53.1913302,17.1041905 54.1433302,17.1211905 C54.3473302,17.1211905 54.3643302,17.0191905 54.3133302,16.8661905 C54.1263302,16.3561905 53.7013302,16.0841905 52.8683302,16.1181905 C52.1713302,16.1521905 51.0493302,16.3901905 50.2333302,16.6451905 C50.5903302,15.8461905 51.0493302,14.9111905 51.5423302,13.9591905 C52.4943302,13.7211905 53.7693302,13.4831905 54.6873302,13.4831905 C54.9083302,13.4831905 54.9083302,13.3811905 54.8573302,13.2281905 C54.6873302,12.7011905 54.3133302,12.4291905 53.4633302,12.4631905 C53.1573302,12.4801905 52.7153302,12.5141905 52.2563302,12.5991905 C53.0893302,11.0861905 53.9223302,9.60719053 54.6023302,8.58719053 C55.6393302,8.41719053 56.8293302,8.11119053 58.0533302,8.12819053 C58.2573302,8.16219053 58.2913302,8.04319053 58.2403302,7.90719053 C58.0363302,7.34619053 57.6623302,7.05719053 56.9483302,7.07419053 C55.9963302,7.09119053 54.1263302,7.58419053 52.7153302,7.49919053 C52.5453302,7.48219053 52.4943302,7.55019053 52.5283302,7.70319053 C52.6303302,8.06019053 52.8173302,8.40019053 53.2423302,8.57019053 L53.2423302,8.57019053 Z" id="FAKE" fill="#FF0000" transform="translate(44.066648, 12.330267) rotate(-30.000000) translate(-44.066648, -12.330267) "></path>
        </g>
    </g>
</svg>